<svg xmlns="http://www.w3.org/2000/svg" viewBox="0 0 64 64" role="img" aria-label="PriceMonitor favicon">
  <defs>
    <linearGradient id="bg" x1="10" x2="54" y1="8" y2="56" gradientUnits="userSpaceOnUse">
      <stop offset="0" stop-color="#0f172a" />
      <stop offset="1" stop-color="#1d4ed8" />
    </linearGradient>
    <linearGradient id="accent" x1="18" x2="47" y1="46" y2="17" gradientUnits="userSpaceOnUse">
      <stop offset="0" stop-color="#22c55e" />
      <stop offset="1" stop-color="#86efac" />
    </linearGradient>
  </defs>
  <rect width="64" height="64" rx="16" fill="url(#bg)" />
  <path
    fill="#93c5fd"
    d="M18 44c0-1.1.9-2 2-2h4c1.1 0 2 .9 2 2v6h-8zm10-10c0-1.1.9-2 2-2h4c1.1 0 2 .9 2 2v16h-8zm10-8c0-1.1.9-2 2-2h4c1.1 0 2 .9 2 2v24h-8z"
  />
  <path
    fill="none"
    stroke="url(#accent)"
    stroke-linecap="round"
    stroke-linejoin="round"
    stroke-width="4"
    d="M16 39l11-9l8 5l13-14"
  />
  <path
    fill="url(#accent)"
    d="M38.8 18.5H50v11.2l-3.7-3.7l-6.2 6.8c-.7.8-1.9 1-2.9.4l-8-4.9l-10 8.1c-.9.8-2.3.6-3.1-.3c-.8-.9-.6-2.3.3-3.1l11.2-9.1c.7-.6 1.8-.7 2.6-.2l7.8 4.8l5-5.5l-4.2-4.3Z"
  />
</svg>
